<svg xmlns="http://www.w3.org/2000/svg" version="1.1" xmlns:xlink="http://www.w3.org/1999/xlink" xmlns:svgjs="http://svgjs.dev/svgjs" width="1500" height="1500" viewBox="0 0 1500 1500"><rect width="1500" height="1500" fill="#ffffff"></rect><g transform="matrix(0.6666666666666666,0,0,0.6666666666666666,249.39393939393938,438.58569500674764)"><svg viewBox="0 0 396 247" data-background-color="#ffffff" preserveAspectRatio="xMidYMid meet" height="935" width="1500" xmlns="http://www.w3.org/2000/svg" xmlns:xlink="http://www.w3.org/1999/xlink"><g id="tight-bounds" transform="matrix(1,0,0,1,0.2400000000000091,-0.09999999999999432)"><svg viewBox="0 0 395.52 247.2" height="247.2" width="395.52"><g><svg></svg></g><g><svg viewBox="0 0 395.52 247.2" height="247.2" width="395.52"><g transform="matrix(1,0,0,1,75.54432,62.1353366555254)"><svg viewBox="0 0 244.43135999999998 122.92932668894919" height="122.92932668894919" width="244.43135999999998"><g><svg viewBox="0 0 244.43135999999998 122.92932668894919" height="122.92932668894919" width="244.43135999999998"><g><svg viewBox="0 0 244.43136 122.9293266889492" height="122.92932668894919" width="244.43135999999998"><g transform="matrix(1,0,0,1,0,66.11828615270596)"><svg viewBox="0 0 244.43136 56.81104053624324" height="56.81104053624324" width="244.43136"><g id="textblocktransform"><svg viewBox="0 0 244.43136 56.81104053624324" height="56.81104053624324" width="244.43136" id="textblock"><g><svg viewBox="0 0 244.43136 30.641160630008287" height="30.641160630008287" width="244.43136"><g transform="matrix(1,0,0,1,0,0)"><svg width="244.43136" viewBox="1.63 -33.48 271.39 34.029999999999994" height="30.641160630008287" data-palette-color="#106a46"><path d="M15.35-31.28L15.35 0 11.2 0 11.2-31.28 15.35-31.28ZM24.93-31.95L24.93-28.48 1.63-28.48 1.63-31.95 24.93-31.95ZM33.97-24.4L33.97 0 29.92 0 29.92-24.4 33.97-24.4ZM31.95-28.4L31.95-28.4Q30.7-28.4 30.09-29.06 29.47-29.73 29.47-30.88L29.47-30.88 29.47-31Q29.47-32.18 30.09-32.83 30.7-33.48 31.95-33.48L31.95-33.48Q33.2-33.48 33.82-32.83 34.45-32.18 34.45-31L34.45-31 34.45-30.88Q34.45-29.7 33.82-29.05 33.2-28.4 31.95-28.4ZM75.2-15.73L75.2 0 71.15 0 71.15-15.28Q71.15-17.2 70.66-18.61 70.17-20.03 69.06-20.8 67.95-21.58 66.07-21.58L66.07-21.58Q64.3-21.58 63-20.85 61.7-20.13 60.9-18.91 60.1-17.7 59.77-16.15L59.77-16.15 59.15-19.03 59.65-19.03Q60.05-20.6 61-21.95 61.95-23.3 63.57-24.13 65.2-24.95 67.59-24.95L67.59-24.95Q70.32-24.95 71.98-23.88 73.65-22.8 74.42-20.74 75.2-18.68 75.2-15.73L75.2-15.73ZM44.72-18.3L44.72 0 40.67 0 40.67-24.4 44.72-24.4 44.55-18.55 44.72-18.3ZM59.95-15.85L59.95 0 55.92 0 55.92-15.28Q55.92-17.2 55.43-18.61 54.95-20.03 53.85-20.8 52.75-21.58 50.87-21.58L50.87-21.58Q49.07-21.58 47.77-20.85 46.47-20.13 45.67-18.89 44.87-17.65 44.55-16.07L44.55-16.07 43.8-18.95 44.7-18.95Q45.07-20.6 46-21.96 46.92-23.33 48.51-24.14 50.1-24.95 52.37-24.95L52.37-24.95Q55.75-24.95 57.51-23.2 59.27-21.45 59.72-18.1L59.72-18.1Q59.85-17.6 59.9-17.01 59.95-16.43 59.95-15.85L59.95-15.85ZM91.72 0.55L91.72 0.55Q86.14 0.55 83.32-2.18 80.49-4.9 80.49-9.98L80.49-9.98 80.49-14.33Q80.49-19.48 83.12-22.26 85.74-25.05 90.79-25.05L90.79-25.05Q94.19-25.05 96.47-23.79 98.74-22.53 99.89-20.2 101.04-17.88 101.04-14.65L101.04-14.65 101.04-13.75Q101.04-12.95 100.98-12.15 100.92-11.35 100.82-10.58L100.82-10.58 97.09-10.58Q97.14-11.78 97.16-12.85 97.17-13.93 97.17-14.83L97.17-14.83Q97.17-17.05 96.46-18.59 95.74-20.13 94.33-20.94 92.92-21.75 90.79-21.75L90.79-21.75Q87.64-21.75 86.07-19.93 84.49-18.1 84.49-14.7L84.49-14.7 84.49-12.38 84.52-11.88 84.52-9.55Q84.52-8.03 84.97-6.8 85.42-5.58 86.38-4.69 87.34-3.8 88.83-3.34 90.32-2.88 92.37-2.88L92.37-2.88Q94.74-2.88 96.79-3.5 98.84-4.13 100.64-5.2L100.64-5.2 100.27-1.7Q98.64-0.68 96.49-0.06 94.34 0.55 91.72 0.55ZM99.97-13.63L99.97-10.58 82.62-10.58 82.62-13.63 99.97-13.63ZM129.11-31.28L129.11 0 124.96 0 124.96-31.28 129.11-31.28ZM138.69-31.95L138.69-28.48 115.39-28.48 115.39-31.95 138.69-31.95ZM147.46-14.93L147.46-14.93 146.54-18.05 147.54-18.1Q148.34-21.2 150.29-22.99 152.24-24.78 155.46-24.78L155.46-24.78Q156.26-24.78 156.9-24.65 157.54-24.53 158.04-24.35L158.04-24.35 158.29-20.43Q157.66-20.63 156.9-20.75 156.14-20.88 155.21-20.88L155.21-20.88Q152.46-20.88 150.42-19.35 148.39-17.82 147.46-14.93ZM147.66-16.9L147.66 0 143.61 0 143.61-24.4 147.56-24.4 147.36-17.2 147.66-16.9ZM180.76-15.8L180.76 0 176.73 0 176.91-5.93 176.76-6.55 176.76-14.33 176.78-15.75Q176.78-18.73 175.27-20.15 173.76-21.58 170.48-21.58L170.48-21.58Q167.86-21.58 165.67-20.83 163.48-20.08 161.78-19.07L161.78-19.07 162.16-22.53Q163.11-23.1 164.42-23.66 165.73-24.23 167.42-24.6 169.11-24.98 171.13-24.98L171.13-24.98Q173.76-24.98 175.6-24.34 177.43-23.7 178.57-22.5 179.71-21.3 180.23-19.6 180.76-17.9 180.76-15.8L180.76-15.8ZM168.33 0.53L168.33 0.53Q164.71 0.53 162.77-1.24 160.83-3 160.83-6.28L160.83-6.28 160.83-7Q160.83-10.38 162.92-12.04 165.01-13.7 169.56-14.35L169.56-14.35 177.28-15.45 177.51-12.5 170.06-11.43Q167.26-11.03 166.06-10.06 164.86-9.1 164.86-7.23L164.86-7.23 164.86-6.83Q164.86-4.9 166.05-3.88 167.23-2.85 169.61-2.85L169.61-2.85Q171.71-2.85 173.21-3.58 174.71-4.3 175.63-5.53 176.56-6.75 176.88-8.25L176.88-8.25 177.51-5.5 176.73-5.5Q176.38-3.9 175.42-2.53 174.46-1.15 172.73-0.31 171.01 0.53 168.33 0.53ZM196.36 0.55L196.36 0.55Q191.11 0.55 188.54-2.29 185.98-5.13 185.98-10.33L185.98-10.33 185.98-14.13Q185.98-19.35 188.56-22.16 191.13-24.98 196.36-24.98L196.36-24.98Q197.91-24.98 199.18-24.69 200.46-24.4 201.47-23.94 202.48-23.48 203.18-22.98L203.18-22.98 203.53-19.45Q202.36-20.35 200.74-20.98 199.13-21.6 196.96-21.6L196.96-21.6Q193.46-21.6 191.74-19.66 190.03-17.73 190.03-14.03L190.03-14.03 190.03-10.43Q190.03-6.8 191.74-4.85 193.46-2.9 196.96-2.9L196.96-2.9Q199.21-2.9 200.84-3.53 202.48-4.15 203.76-5.05L203.76-5.05 203.38-1.48Q202.28-0.73 200.51-0.09 198.73 0.55 196.36 0.55ZM217.83-13.6L229.35 0 224.5 0 214.85-11.38 212.28-11.38 212.28-14.53 214.85-14.53 224.1-24.4 228.9-24.4 217.83-12.63 217.83-13.6ZM212.68-33.13L212.68 0 208.65 0 208.65-33.13 212.68-33.13ZM243.63 0.55L243.63 0.55Q238.05 0.55 235.23-2.18 232.4-4.9 232.4-9.98L232.4-9.98 232.4-14.33Q232.4-19.48 235.03-22.26 237.65-25.05 242.7-25.05L242.7-25.05Q246.1-25.05 248.38-23.79 250.65-22.53 251.8-20.2 252.95-17.88 252.95-14.65L252.95-14.65 252.95-13.75Q252.95-12.95 252.89-12.15 252.83-11.35 252.73-10.58L252.73-10.58 249-10.58Q249.05-11.78 249.06-12.85 249.08-13.93 249.08-14.83L249.08-14.83Q249.08-17.05 248.36-18.59 247.65-20.13 246.24-20.94 244.83-21.75 242.7-21.75L242.7-21.75Q239.55-21.75 237.98-19.93 236.4-18.1 236.4-14.7L236.4-14.7 236.4-12.38 236.43-11.88 236.43-9.55Q236.43-8.03 236.88-6.8 237.33-5.58 238.29-4.69 239.25-3.8 240.74-3.34 242.23-2.88 244.28-2.88L244.28-2.88Q246.65-2.88 248.7-3.5 250.75-4.13 252.55-5.2L252.55-5.2 252.18-1.7Q250.55-0.68 248.4-0.06 246.25 0.55 243.63 0.55ZM251.88-13.63L251.88-10.58 234.53-10.58 234.53-13.63 251.88-13.63ZM262.2-14.93L262.2-14.93 261.27-18.05 262.27-18.1Q263.07-21.2 265.02-22.99 266.97-24.78 270.2-24.78L270.2-24.78Q271-24.78 271.63-24.65 272.27-24.53 272.77-24.35L272.77-24.35 273.02-20.43Q272.4-20.63 271.63-20.75 270.87-20.88 269.95-20.88L269.95-20.88Q267.2-20.88 265.16-19.35 263.12-17.82 262.2-14.93ZM262.4-16.9L262.4 0 258.35 0 258.35-24.4 262.3-24.4 262.1-17.2 262.4-16.9Z" opacity="1" transform="matrix(1,0,0,1,0,0)" fill="#106a46" class="wordmark-text-0" data-fill-palette-color="primary" id="text-0"></path></svg></g></svg></g><g transform="matrix(1,0,0,1,0,37.87480326689813)"><svg viewBox="0 0 244.43136 18.93623726934512" height="18.93623726934512" width="244.43136"><g transform="matrix(1,0,0,1,0,0)"><svg width="244.43136" viewBox="2.25 -37.5 645.41 50" height="18.93623726934512" data-palette-color="#106a46"><path d="M15.3 0L12.15 0 12.15-32 2.25-32 2.5-35 25.15-35 24.9-32 15.3-32 15.3 0ZM52.28-24.5L50.98-21.5Q50.18-21.95 49.28-21.95 48.38-21.95 48.28-21.9L48.28-21.9Q46.38-21.9 44.45-20.53 42.53-19.15 41.18-17.45L41.18-17.45 41.18 0 37.93 0 37.93-25 41.18-25.25 41.18-19.65Q43.03-22 44.33-22.95L44.33-22.95Q46.73-24.75 48.93-24.85L48.93-24.85Q49.23-24.9 50.03-24.9 50.83-24.9 52.28-24.5L52.28-24.5ZM64.46-19.9L63.56-22.3Q69.01-25 73.11-25.15L73.11-25.15Q76.36-25.15 78.13-24.33 79.91-23.5 81.01-22.03 82.11-20.55 82.11-17.9L82.11-17.9 82.11 0 78.86 0 78.86-1.9Q72.01 0.2 70.06 0.2L70.06 0.2Q69.96 0.2 69.91 0.2L69.91 0.2Q65.41 0.2 63.76-2.55L63.76-2.55Q63.16-3.55 63.08-4.5 63.01-5.45 63.01-6.1L63.01-6.1Q63.01-7.9 64.41-9.33 65.81-10.75 67.76-11.25L67.76-11.25Q71.06-12.1 78.86-12.75L78.86-12.75 78.86-16.8Q78.86-22.25 73.16-22.25L73.16-22.25Q69.16-22.25 64.46-19.9L64.46-19.9ZM66.06-5.7L66.06-5.7Q66.06-2.1 71.01-2.1L71.01-2.1Q74.96-2.1 78.86-3.8L78.86-3.8 78.86-10.95Q71.06-9.85 69.21-9.25L69.21-9.25Q66.06-8.25 66.06-5.7ZM112.38-16.4L112.13-21.65Q110.08-22.3 107.93-22.3L107.93-22.3Q103.58-22.3 100.96-19.5 98.33-16.7 98.33-11.6L98.33-11.6Q98.33-2.7 106.58-2.7L106.58-2.7Q109.88-2.7 113.38-3.8L113.38-3.8Q114.08-4 114.23-4.1L114.23-4.1 115.03-1.4Q113.28-0.35 108.68 0.1L108.68 0.1Q107.38 0.2 105.93 0.2L105.93 0.2Q101.68 0.2 98.93-1.9L98.93-1.9Q95.08-4.8 95.08-11.45 95.08-18.1 98.66-21.68 102.23-25.25 107.88-25.25L107.88-25.25Q109.68-25.25 111.71-24.78 113.73-24.3 114.83-23.3L114.83-23.3 114.83-16.75 112.38-16.4ZM132.26-37.5L132.26 0 129.01 0 129.01-37.25 132.26-37.5ZM132.26-13.3L142.31-25 146.21-25 135.51-13.3 147.21 0 143.56 0.25 132.26-13.3ZM193.02 0L184.12-25 187.77-25.25 195.22-2.35 204.82-25 208.32-25 191.72 12.5 188.67 12.5 194.17 0 193.02 0ZM219.09-6.4L219.09-6.4Q218.19-8.8 218.19-12L218.19-12Q218.19-18.15 221.64-21.68 225.09-25.2 230.29-25.2L230.29-25.2Q238.44-25.2 240.99-18.6L240.99-18.6Q241.94-16.2 241.94-13L241.94-13Q241.94-6.85 238.49-3.33 235.04 0.2 229.84 0.2L229.84 0.2Q221.69 0.2 219.09-6.4ZM221.44-12.35Q221.44-7.75 223.82-5.23 226.19-2.7 229.94-2.7 233.69-2.7 236.19-5.38 238.69-8.05 238.69-12.65 238.69-17.25 236.34-19.78 233.99-22.3 230.22-22.3 226.44-22.3 223.94-19.63 221.44-16.95 221.44-12.35ZM261.12-3.2L261.12-3.2Q262.22-2.8 264.62-2.8 267.02-2.8 270.82-4.75L270.82-4.75 270.82-25 274.07-25.25 274.07 0 270.82 0 270.82-2.7Q267.12 0.15 263.27 0.15L263.27 0.15Q258.47 0.15 256.32-2.7L256.32-2.7Q255.22-4.1 255.22-6.6L255.22-6.6 255.22-25 258.47-25.25 258.47-7.45Q258.47-4.35 261.12-3.2ZM303.9-24.5L302.6-21.5Q301.8-21.95 300.9-21.95 300-21.95 299.9-21.9L299.9-21.9Q298-21.9 296.08-20.53 294.15-19.15 292.8-17.45L292.8-17.45 292.8 0 289.55 0 289.55-25 292.8-25.25 292.8-19.65Q294.65-22 295.95-22.95L295.95-22.95Q298.35-24.75 300.55-24.85L300.55-24.85Q300.85-24.9 301.65-24.9 302.45-24.9 303.9-24.5L303.9-24.5ZM362.66 0L356.76-20.1 350.06 0 347.06 0 338.81-25 342.46-25.25 348.81-4.1 355.31-25 358.46-25.25 364.06-4.05 371.41-25 375.26-25.25 365.66 0 362.66 0ZM386.53-6.4L386.53-6.4Q385.63-8.8 385.63-12L385.63-12Q385.63-18.15 389.08-21.68 392.53-25.2 397.73-25.2L397.73-25.2Q405.88-25.2 408.43-18.6L408.43-18.6Q409.38-16.2 409.38-13L409.38-13Q409.38-6.85 405.93-3.33 402.48 0.2 397.28 0.2L397.28 0.2Q389.13 0.2 386.53-6.4ZM388.88-12.35Q388.88-7.75 391.26-5.23 393.63-2.7 397.38-2.7 401.13-2.7 403.63-5.38 406.13-8.05 406.13-12.65 406.13-17.25 403.78-19.78 401.43-22.3 397.66-22.3 393.88-22.3 391.38-19.63 388.88-16.95 388.88-12.35ZM436.76-24.5L435.46-21.5Q434.66-21.95 433.76-21.95 432.86-21.95 432.76-21.9L432.76-21.9Q430.86-21.9 428.94-20.53 427.01-19.15 425.66-17.45L425.66-17.45 425.66 0 422.41 0 422.41-25 425.66-25.25 425.66-19.65Q427.51-22 428.81-22.95L428.81-22.95Q431.21-24.75 433.41-24.85L433.41-24.85Q433.71-24.9 434.51-24.9 435.31-24.9 436.76-24.5L436.76-24.5ZM451.99-37.5L451.99 0 448.74 0 448.74-37.25 451.99-37.5ZM451.99-13.3L462.04-25 465.94-25 455.24-13.3 466.94 0 463.29 0.25 451.99-13.3ZM494.67-24.5L493.87-21.7Q492.07-22.3 488.97-22.3 485.87-22.3 484.17-21.2 482.47-20.1 482.47-18.48 482.47-16.85 483.47-16.1 484.47-15.35 485.97-14.83 487.47-14.3 489.24-13.8 491.02-13.3 492.52-12.5L492.52-12.5Q496.02-10.7 496.02-7.15 496.02-3.6 493.59-1.7 491.17 0.2 486.52 0.2L486.52 0.2Q484.17 0.2 481.99-0.28 479.82-0.75 478.67-1.6L478.67-1.6 479.77-4.25Q480.92-3.25 484.42-2.8L484.42-2.8Q485.52-2.65 486.67-2.65L486.67-2.65Q489.27-2.65 491.02-3.73 492.77-4.8 492.77-7L492.77-7Q492.77-8.5 491.77-9.35 490.77-10.2 489.27-10.78 487.77-11.35 485.99-11.8 484.22-12.25 482.72-12.98 481.22-13.7 480.22-14.88 479.22-16.05 479.22-18.05L479.22-18.05Q479.22-21.3 481.72-23.25 484.22-25.2 488.42-25.2L488.42-25.2Q489.47-25.2 490.57-25.08 491.67-24.95 492.57-24.85L492.57-24.85 494.67-24.5ZM544.77-3.6L545.37-0.9Q544.47 0 542.12 0L542.12 0Q538.82 0 537.67-1.7L537.67-1.7Q535.72-3.55 535.72-6.7L535.72-6.7 535.72-22.1 532.92-22.1 533.37-25 535.72-25 535.72-29.95 538.97-30.25 538.97-25 544.77-25 544.77-22.1 538.97-22.1 538.97-5.9Q538.97-3 541.97-3L541.97-3Q543.27-3 544.77-3.6L544.77-3.6ZM559.95-25L563.2-25.25 563.2 0 559.95 0 559.95-25ZM561.45-31.7Q560.45-31.7 559.93-32.35 559.4-33 559.4-34 559.4-35 559.98-35.63 560.55-36.25 561.55-36.25 562.55-36.25 563.18-35.63 563.8-35 563.8-33.9 563.8-32.8 563.13-32.25 562.45-31.7 561.45-31.7ZM588.08-22.25L588.08-22.25Q585.28-22.1 582.03-20.4L582.03-20.4 582.03 0 578.78 0 578.78-25 582.03-25.25 582.03-22.45Q585.38-25 588.53-25.15L588.53-25.15Q593.83-25.15 595.83-22.5L595.83-22.5Q599.63-25 603.18-25.15L603.18-25.15Q606.23-25.15 607.88-24.4 609.53-23.65 610.6-22.28 611.68-20.9 611.68-18.4L611.68-18.4 611.68 0 608.43 0 608.43-17.55Q608.43-19.4 607.58-20.4L607.58-20.4Q606.03-22.25 603.18-22.25L603.18-22.25Q600.18-22.25 596.78-20.45L596.78-20.45Q597.03-19.45 597.03-18.4L597.03-18.4 597.03 0 593.78 0 593.78-17.55Q593.78-19.4 592.98-20.4L592.98-20.4Q591.38-22.25 588.08-22.25ZM629.66-12.3L629.66-11.5Q629.66-2.7 638.06-2.7L638.06-2.7Q641.61-2.7 644.56-3.65L644.56-3.65Q645.31-3.9 645.61-4.05L645.61-4.05 646.36-1.4Q644.61-0.35 640.01 0.1L640.01 0.1Q638.71 0.2 637.26 0.2L637.26 0.2Q633.06 0.2 630.26-1.9L630.26-1.9Q626.41-4.75 626.41-11.4 626.41-18.05 629.88-21.63 633.36-25.2 638.31-25.2 643.26-25.2 645.76-22L645.76-22Q647.66-19.45 647.66-15.25L647.66-15.25Q647.66-14.25 647.56-13.15L647.56-13.15 629.71-13.15Q629.66-12.75 629.66-12.3L629.66-12.3ZM638.51-22.1L638.51-22.1Q635.41-22.1 633.21-20.23 631.01-18.35 630.16-15.4L630.16-15.4 644.71-15.4Q644.46-20.95 640.41-21.85L640.41-21.85Q639.51-22.1 638.51-22.1Z" opacity="1" transform="matrix(1,0,0,1,0,0)" fill="#106a46" class="slogan-text-1" data-fill-palette-color="secondary" id="text-1"></path></svg></g></svg></g></svg></g></svg></g><g transform="matrix(1,0,0,1,95.02390268631953,0)"><svg viewBox="0 0 54.38355462736096 58.88464351581613" height="58.88464351581613" width="54.38355462736096"><g><svg xmlns="http://www.w3.org/2000/svg" xmlns:xlink="http://www.w3.org/1999/xlink" version="1.1" x="0" y="0" viewBox="18 15.075 64 69.297" enable-background="new 0 0 100 100" xml:space="preserve" height="58.88464351581613" width="54.38355462736096" class="icon-icon-0" data-fill-palette-color="accent" id="icon-0"><g fill="#3d9970" data-fill-palette-color="accent"><path fill="#3d9970" d="M50 22.372c16.542 0 30 13.458 30 30s-13.458 30-30 30-30-13.458-30-30S33.458 22.372 50 22.372M50 20.372c-17.673 0-32 14.327-32 32 0 17.673 14.327 32 32 32s32-14.327 32-32C82 34.699 67.673 20.372 50 20.372L50 20.372z" data-fill-palette-color="accent"></path><rect x="42" y="15.075" fill="#3d9970" width="16" height="2.517" data-fill-palette-color="accent"></rect><path fill="#3d9970" d="M80.011 35.359c0 0-0.166-0.268-0.455-0.737-0.3-0.448-0.681-1.186-1.223-1.896-0.265-0.367-0.551-0.765-0.854-1.185-0.289-0.428-0.68-0.836-1.036-1.283-0.37-0.438-0.733-0.908-1.165-1.33-0.418-0.435-0.842-0.876-1.266-1.318-0.454-0.41-0.908-0.821-1.355-1.225-0.435-0.419-0.916-0.767-1.365-1.124-0.458-0.344-0.872-0.718-1.317-1-0.436-0.294-0.848-0.572-1.229-0.829-0.75-0.532-1.446-0.86-1.9-1.144-0.464-0.268-0.729-0.42-0.729-0.42l0.936-1.768c0 0 0.321 0.083 0.867 0.274 0.272 0.1 0.603 0.221 0.981 0.36 0.386 0.133 0.814 0.296 1.246 0.538 0.444 0.222 0.925 0.468 1.421 0.751 0.508 0.265 0.993 0.619 1.505 0.974 0.502 0.366 1.061 0.701 1.534 1.154 0.493 0.431 0.993 0.869 1.494 1.307 0.452 0.487 0.904 0.975 1.35 1.455 0.464 0.463 0.819 1.008 1.199 1.5 0.373 0.503 0.73 0.97 1.023 1.482 0.307 0.497 0.57 0.981 0.812 1.424 0.265 0.44 0.431 0.851 0.565 1.213 0.144 0.362 0.269 0.678 0.372 0.938 0.199 0.524 0.29 0.838 0.29 0.838L80.011 35.359z" data-fill-palette-color="accent"></path><circle fill="#3d9970" cx="50" cy="52.372" r="3.5" data-fill-palette-color="accent"></circle><polygon fill="#3d9970" points="48.499,50.871 69.166,32.499 69.873,33.206 51.502,53.874  " data-fill-palette-color="accent"></polygon><polygon fill="#3d9970" points="48.593,53.962 36.554,41.149 37.216,40.4 51.406,50.78  " data-fill-palette-color="accent"></polygon></g></svg></g></svg></g><g></g></svg></g></svg></g></svg></g><g><path d="M96.68 54.902A122.216 122.216 0 0 1 298.84 54.902L296.077 54.902A119.452 119.452 0 0 0 99.443 54.902L96.68 54.902M96.68 192.298A122.216 122.216 0 0 0 298.84 192.298L296.077 192.298A119.452 119.452 0 0 1 99.443 192.298L96.68 192.298" fill="#106a46" stroke="transparent" data-fill-palette-color="tertiary"></path></g></svg></g><defs></defs></svg><rect width="395.52" height="247.2" fill="none" stroke="none" visibility="hidden"></rect></g></svg></g></svg>